<?xml version='1.0' encoding='UTF-8'?>
<svg xmlns="http://www.w3.org/2000/svg" xmlns:xlink="http://www.w3.org/1999/xlink" width="262" height="176"><g id="bottomCell1">
		<path opacity="0.2" d="M5.0,173.2c-2.8,0.0-5.0-2.2-5.0-5.0v-162.5c0.0-2.8,2.2-5.0,5.0-5.0h250.0c2.8,0.0,5.0,2.2,5.0,5.0v162.5c0.0,2.8-2.2,5.0-5.0,5.0H5.0z"/>
		<rect x="5.2" y="5.8" fill="#915237" width="250" height="12.5"/>
		<rect x="5.2" y="155.8" fill="#915237" width="250" height="12.5"/>
		<rect x="5.2" y="10.8" fill="#A06444" width="250" height="150"/>
		<g>
			<path fill="#CC925E" d="M249.9,56.3c-0.6-6.4-0.4-12.9-0.4-19.4c0.0-2.9,0.0-5.9-0.1-8.8c-0.1-2.5,0.1-5.7-0.8-8.1c-1.9-5.0-10.1-4.0-14.4-3.7c-6.4,0.3-12.9,0.2-19.4,0.5c-6.7,0.2-13.4,0.6-20.1,0.5c-6.3-0.1-12.6-1.1-19.0-1.3c-13.4-0.4-26.6,0.7-40.0,1.1c-13.1,0.4-26.3-0.1-39.4,0.2c-6.2,0.1-12.5,0.4-18.7-0.1c-6.5-0.5-13.0-1.1-19.6-1.3c-6.5-0.2-13.1-0.3-19.6,0.1c-2.9,0.2-5.9,0.6-8.8,0.7c-3.2,0.1-6.5-0.2-9.7-0.3c-2.6-0.0-5.4-0.2-7.5,1.6c-1.9,1.7-2.3,4.1-2.4,6.5c-0.2,5.8-0.0,11.7-0.0,17.5c-0.1,12.6,0.7,25.1,0.8,37.7c0.1,12.6,0.7,25.2,0.5,37.7c-0.1,6.5-0.3,12.9-0.4,19.4c-0.0,4.0-0.7,8.6,1.0,12.4c1.0,2.3,2.6,2.8,4.8,3.7c3.0,1.3,5.6,2.0,8.9,1.9c6.5-0.2,13.0-1.1,19.5-1.3c12.6-0.6,25.2,1.3,37.8,1.7c6.3,0.2,12.7,0.2,19.0,0.0c6.5-0.2,13.0-0.7,19.6-0.6c13.0,0.2,25.9,1.4,38.9,0.6c13.1-0.8,26.3-2.2,39.4-1.1c12.6,1.1,25.3,0.8,37.9,1.6c3.6,0.2,8.5,0.5,10.4-3.2c2.1-4.1,1.1-9.4,0.9-13.8c-1.2-25.5,1.2-51.1,0.9-76.6c-0.0-2.7-0.0-5.4-0.3-8.1c-0.1-0.7-0.3-1.6-0.2-2.3C249.3,53.0,249.9,55.5,249.9,56.3C249.3,49.3,249.9,58.0,249.9,56.3z"/>
			<g>
				<path fill="#C88C5D" d="M234.2,16.3c-6.4,0.3-12.9,0.2-19.4,0.5c-6.7,0.2-13.4,0.6-20.1,0.5c-6.3-0.1-12.6-1.1-19.0-1.3c-13.4-0.4-26.6,0.7-40.0,1.1c-1.1,0.0-2.2,0.0-3.3,0.1c38.9,4.4,77.9,8.6,116.9,12.3c-0.0-0.4-0.0-0.8-0.0-1.2c-0.1-2.5,0.1-5.7-0.8-8.1C246.6,15.1,238.4,16.1,234.2,16.3z"/>
				<path fill="#C88C5D" d="M249.1,138.7c-0.0-0.1-0.0-0.3-0.0-0.4c-72.0-7.3-143.5-16.7-212.7-30.9c-8.4-1.7-16.8-3.6-25.1-5.5c0.1,3.1,0.1,6.2,0.1,9.3c76.6,16.9,157.3,27.8,238.1,36.0C249.6,144.3,249.2,141.3,249.1,138.7z"/>
				<path fill="#C88C5D" d="M45.2,153.5c12.6-0.6,25.2,1.3,37.8,1.7c6.3,0.2,12.7,0.2,19.0,0.0c6.5-0.2,13.0-0.7,19.6-0.6c13.0,0.2,25.9,1.4,38.9,0.6c13.1-0.8,26.3-2.2,39.4-1.1c12.6,1.1,25.3,0.8,37.9,1.6c1.7,0.1,3.7,0.2,5.5-0.0c-10.3-0.7-20.5-1.5-30.8-2.5c-58.0-5.1-115.8-12.8-172.9-22.9c-8.0-1.4-16.1-2.9-24.1-4.4c-1.5-0.3-3.0-0.6-4.4-0.8c-0.1,3.9-0.2,7.9-0.2,11.8c-0.0,4.0-0.7,8.6,1.0,12.4c0.6,1.5,1.5,2.2,2.6,2.8c4.8,0.9,9.6,1.8,14.4,2.7C34.4,154.3,39.8,153.7,45.2,153.5z"/>
				<path fill="#C88C5D" d="M249.5,41.7c-68.7-3.1-137.1-8.3-204.1-18.0c-11.2-1.6-22.3-3.4-33.4-5.3c-1.5,1.7-1.8,3.9-1.9,6.0c-0.0,0.9-0.0,1.8-0.1,2.7c77.5,13.0,158.6,19.6,239.5,23.3C249.5,47.6,249.5,44.6,249.5,41.7z"/>
				<path fill="#C88C5D" d="M250.0,61.7c-1.1-0.2-2.2-0.3-3.4-0.5c-78.3-11.6-157.6-17.7-236.5-20.1c0.0,0.3,0.0,0.6,0.0,0.9c-0.0,8.4,0.3,16.7,0.5,25.0c2.3,0.1,4.5,0.1,6.8,0.2c10.4,0.3,20.9,0.8,31.3,1.3c20.2,1.0,40.3,2.2,60.5,3.7c39.5,3.0,79.0,7.1,118.3,12.6c7.4,1.0,14.8,2.1,22.1,3.2c0.3-8.7,0.5-17.3,0.4-26.0C250.0,62.0,250.0,61.8,250.0,61.7z"/>
				<path fill="#C88C5D" d="M248.9,110.4c-0.3-0.1-0.7-0.1-1.0-0.2c-78.7-11.9-157.7-23.2-237.0-31.6c0.0,0.4,0.0,0.7,0.0,1.1c0.0,5.2,0.2,10.4,0.3,15.7c24.8,2.6,49.6,5.5,74.4,8.7c54.6,7.0,108.9,14.9,163.3,23.1C248.7,121.6,248.8,116.0,248.9,110.4z"/>
			</g>
		</g>
	</g>
</svg>
