<?xml version='1.0' encoding='UTF-8'?>
<svg xmlns="http://www.w3.org/2000/svg" xmlns:xlink="http://www.w3.org/1999/xlink" width="48" height="74"><g id="digit3">
		<path fill="#333333" d="M0.5,59.6l2.1-2.1l4.0-3.8c0.5-0.5,0.9-0.8,1.3-1.1c0.4-0.3,0.6-0.5,0.8-0.7c1.4,2.6,4.1,4.8,8.2,6.6c1.8,0.8,3.6,1.2,5.4,1.2c1.7,0.0,3.3-0.4,4.9-1.1c1.6-0.7,2.9-2.0,3.8-3.7c0.9-1.7,1.4-3.7,1.4-5.8c0.0-1.7-0.3-3.3-1.0-4.7c-0.6-1.4-1.5-2.5-2.7-3.3c-2.3-1.6-5.5-2.4-9.8-2.4l-2.4-0.0c-0.8,0.0-1.4,0.0-2.0,0.1l-0.0-11.7c2.3-0.0,4.5-0.5,6.6-1.3c2.1-0.8,3.9-1.9,5.6-3.4c1.7-1.5,2.6-3.3,2.6-5.4c0.0-0.5-0.0-1.0-0.1-1.4c-0.3-1.3-0.9-2.5-1.8-3.5c-0.9-1.0-2.1-1.8-3.4-2.2c-0.8-0.3-1.6-0.4-2.5-0.4c-1.5,0.0-3.1,0.4-4.9,1.1c-1.8,0.7-3.7,1.9-5.6,3.3c-1.5-2.9-3.3-5.6-5.4-8.0c3.0-2.6,6.8-4.5,11.4-5.7c1.6-0.5,3.4-0.7,5.4-0.7c1.7,0.0,3.6,0.2,5.5,0.6c4.0,0.9,7.1,2.8,9.3,5.7h0.0c2.2,3.2,3.3,6.5,3.3,9.9c0.0,1.5-0.2,2.8-0.5,4.0c-1.1,4.5-3.7,8.0-7.6,10.4c4.7,1.6,8.1,4.2,10.3,8.0c1.9,3.1,2.8,6.5,2.8,10.1c0.0,1.0-0.1,1.9-0.2,2.7c-0.6,5.2-2.5,9.6-5.6,13.2c-3.1,3.6-7.4,5.9-13.0,7.0c-1.4,0.3-3.0,0.5-4.6,0.5c-1.8,0.0-3.5-0.1-4.9-0.4c-1.5-0.3-3.3-0.9-5.4-1.7c-1.3-0.5-2.9-1.6-4.5-3.0c-1.7-1.5-3.2-3.0-4.7-4.5c-1.4-1.5-2.2-2.3-2.2-2.3S0.5,59.7,0.5,59.6z"/>
	</g>
</svg>
