<?xml version='1.0' encoding='UTF-8'?>
<svg xmlns="http://www.w3.org/2000/svg" xmlns:xlink="http://www.w3.org/1999/xlink" width="46" height="72"><g id="digit5">
		<path fill="#333333" d="M19.6,69.7c-3.5,0.0-7.0-0.7-10.3-2.1c-3.3-1.4-6.3-3.4-8.8-5.9c2.1-3.4,3.8-7.1,5.0-11.1c2.8,2.8,5.7,4.7,8.7,5.7c1.6,0.5,3.2,0.7,4.7,0.7c2.1,0.0,3.9-0.4,5.6-1.2c1.6-0.8,3.0-2.0,4.1-3.6c1.1-1.6,1.6-3.2,1.6-5.0c0.0-1.5-0.4-3.0-1.2-4.4c-0.8-1.4-1.9-2.6-3.2-3.6c-1.3-1.0-2.8-1.7-4.3-2.2c-1.2-0.3-2.6-0.5-4.0-0.5c-3.1,0.0-6.5,0.8-10.3,2.4c0.4-5.8,0.6-11.8,0.6-18.0c0.0-7.1-0.2-13.9-0.7-20.5c0.0,0.2,2.6,0.4,7.8,0.4h3.7c4.8,0.0,9.5-0.2,14.1-0.5c1.2-0.1,3.1-0.2,5.7-0.5c2.6-0.2,3.9-0.4,3.9-0.5c0.4,4.9,0.7,8.5,0.9,11.0l-24.2,1.7l0.4,12.9c1.1-0.2,2.2-0.3,3.4-0.3c3.4,0.0,6.7,0.8,9.8,2.5c3.1,1.7,5.7,3.9,7.6,6.8c1.2,1.8,2.1,3.7,2.7,5.8c0.6,2.1,0.9,4.3,0.9,6.5c0.0,3.8-0.8,7.3-2.5,10.5c-1.8,3.5-4.5,6.4-7.9,8.7c-3.4,2.3-7.2,3.7-11.2,4.1C21.4,69.6,20.5,69.7,19.6,69.7z"/>
	</g>
</svg>
