<?xml version='1.0' encoding='UTF-8'?>
<svg xmlns="http://www.w3.org/2000/svg" xmlns:xlink="http://www.w3.org/1999/xlink" width="52" height="74"><g id="digit9">
		<path fill="#333333" d="M15.9,71.4c-3.0,0.0-5.9-0.4-8.7-1.2c0.2,0.0,0.8-1.4,1.9-4.3c1.1-2.9,1.8-5.2,2.4-6.9c0.1,0.0,0.7,0.1,2.0,0.4c1.4,0.4,2.6,0.6,3.6,0.6c3.3,0.0,6.3-1.1,9.2-3.2c4.2-3.1,7.2-7.6,9.1-13.6l-0.4,0.2c-4.3,2.7-8.8,4.0-13.4,4.0c-1.5,0.0-3.0-0.1-4.4-0.4c-6.5-1.3-11.2-4.8-14.2-10.4c-1.9-3.6-2.8-7.5-2.8-11.7c0.0-3.6,0.7-7.0,2.2-10.4c1.4-3.3,3.5-6.2,6.1-8.6c2.3-2.0,4.8-3.6,7.6-4.6c2.8-1.1,5.7-1.6,8.7-1.6c2.3,0.0,4.6,0.3,6.8,1.0c7.4,2.2,12.3,6.9,14.9,14.3c1.3,3.8,2.0,8.1,2.2,12.9l0.0,1.6c0.0,4.1-0.5,8.1-1.5,12.2c-1.2,5.0-3.0,9.6-5.3,13.8c-2.4,4.2-5.3,7.7-9.0,10.4c-2.5,1.9-5.2,3.3-8.1,4.2C21.9,71.0,19.0,71.4,15.9,71.4zM25.1,10.0c-2.5,0.0-4.8,0.7-7.0,2.2c-2.2,1.4-3.9,3.3-5.2,5.6c-1.3,2.3-1.9,4.6-1.9,7.0c0.0,1.6,0.3,3.1,0.9,4.6c0.6,1.4,1.6,2.8,2.9,3.9c1.2,1.0,2.5,1.8,4.1,2.4c1.6,0.6,3.2,0.8,4.9,0.8c2.4,0.0,4.5-0.5,6.5-1.5c2.0-1.0,3.6-2.5,4.6-4.4c1.1-2.1,1.7-4.5,1.7-7.1c0.0-2.5-0.5-4.8-1.5-6.9c-1.0-2.2-2.4-3.8-4.3-4.9C29.0,10.5,27.1,10.0,25.1,10.0z"/>
	</g>
</svg>
