<?xml version='1.0' encoding='UTF-8'?>
<svg xmlns="http://www.w3.org/2000/svg" xmlns:xlink="http://www.w3.org/1999/xlink" width="462" height="150"><svg x="0" y="0">
		<g id="defaultContent">
			<path fill="#0B8BB7" d="M132.1,73.8c1.2,33.5-34.1,60.0-66.5,54.1c-7.4-1.5-13.3-2.9-18.5-7.2c-3.8-2.2-7.3-4.9-10.4-7.9c-15.6-14.8-22.4-37.7-13.8-58.6c5.9-11.8,13.3-22.1,25.0-28.0c14.1-7.1,27.3-8.4,42.6-4.7c19.3,4.7,36.9,20.9,40.5,41.3C131.7,66.4,132.1,70.1,132.1,73.8z"/>
			<g>
				<path fill="#FFFFFF" d="M76.9,70.2h-2.4c-8.7,0.0-17.4-0.2-26.2-0.7c-0.0,0.0-0.0-0.2-0.0-0.6c0.0-0.5,0.1-1.9,0.2-4.2c0.2-2.7,0.3-4.6,0.3-5.6c0.0-0.8-0.0-1.2-0.1-1.2l7.2,0.1c8.6,0.2,15.9,0.3,21.9,0.3c8.9,0.0,16.8-0.3,23.9-0.8c0.2,2.8,0.4,5.1,0.6,6.9c0.2,1.8,0.4,3.4,0.7,4.7l-6.6,0.3c-6.4,0.4-9.9,0.5-10.3,0.5C84.0,70.1,80.9,70.2,76.9,70.2zM76.9,90.1h-2.4c-8.7,0.0-17.4-0.2-26.2-0.7c-0.0,0.0-0.0-0.2-0.0-0.6c0.0-0.5,0.1-1.9,0.2-4.2c0.2-2.7,0.3-4.6,0.3-5.6c0.0-0.8-0.0-1.2-0.1-1.2l7.2,0.1c8.4,0.2,15.5,0.3,21.5,0.3c9.0,0.0,17.1-0.3,24.3-0.8c0.2,2.8,0.4,5.1,0.6,6.9c0.2,1.8,0.4,3.4,0.7,4.7l-6.6,0.3c-6.4,0.4-9.9,0.5-10.3,0.5C84.0,90.0,80.9,90.1,76.9,90.1z"/>
			</g>
		</g>
	</svg>
	<svg id="active" x="154" y="0">
		<use xlink:href="#defaultContent" style="stroke: #000000; stroke-width: 14; opacity: 0.2; stroke-miterlimit: 10; stroke-linecap: round; stroke-linejoin: round;" x="6" y="6"/>
		<use xlink:href="#defaultContent" style="stroke: #FFFFFF; stroke-width: 14; stroke-miterlimit: 10; stroke-linecap: round; stroke-linejoin: round;"/>
		<use xlink:href="#defaultContent"/>
	</svg>
	<svg id="selected" x="308" y="0">
		<use xlink:href="#defaultContent" style="stroke: #FFFFFF; stroke-width: 32; stroke-miterlimit: 10; stroke-linecap: round; stroke-linejoin: round;"/>
		<use xlink:href="#defaultContent"/>
	</svg>
</svg>
