<?xml version='1.0' encoding='UTF-8'?>
<svg xmlns="http://www.w3.org/2000/svg" xmlns:xlink="http://www.w3.org/1999/xlink" width="48" height="74"><g id="digit8">
		<path fill="#333333" d="M22.3,71.7c-1.4,0.0-2.7-0.1-3.8-0.2c-4.5-0.5-8.1-1.8-10.9-4.0c-2.1-1.6-3.8-3.7-5.1-6.4c-1.3-2.6-1.9-5.3-1.9-8.0c0.0-0.3,0.0-0.8,0.1-1.5c0.5-4.2,1.9-7.9,4.3-11.3c2.4-3.3,5.4-6.1,9.1-8.4c-3.1-2.6-5.2-5.5-6.2-8.6c-0.5-1.6-0.8-3.2-0.8-4.9c0.0-1.9,0.3-3.8,1.0-5.6c0.9-2.4,2.3-4.5,4.1-6.5c1.9-1.9,4.1-3.5,6.5-4.6c2.5-1.1,5.0-1.7,7.5-1.7c0.3,0.0,0.8,0.0,1.5,0.1c2.9,0.3,5.6,1.4,8.1,3.4c2.5,1.9,4.3,4.3,5.4,7.0c0.8,2.0,1.2,4.1,1.2,6.2c0.0,1.6-0.2,3.2-0.7,4.9c-1.0,3.9-2.8,7.2-5.3,10.0c3.4,2.5,6.0,5.7,7.8,9.4c1.3,2.7,1.9,5.4,1.9,8.3c0.0,1.3-0.1,2.6-0.4,3.8c-0.9,4.7-2.9,8.7-6.0,11.8c-2.2,2.3-4.9,4.0-7.9,5.1C28.9,71.2,25.7,71.7,22.3,71.7zM26.2,39.0c-4.2,1.2-7.8,3.1-10.8,5.7c-1.1,0.9-2.0,2.1-2.6,3.5c-0.7,1.4-1.0,2.7-1.0,4.1c0.0,1.5,0.4,2.8,1.1,4.0c1.3,2.0,3.7,3.5,7.0,4.3c1.5,0.4,2.9,0.5,4.2,0.5c2.8,0.0,5.1-0.7,7.0-2.2c1.1-0.9,2.0-2.1,2.6-3.6c0.6-1.5,0.9-3.0,0.9-4.6c0.0-1.3-0.2-2.5-0.6-3.5C32.7,44.0,30.1,41.2,26.2,39.0zM26.8,10.2c-0.3-0.0-0.7-0.0-1.3-0.0c-1.3,0.1-2.5,0.6-3.7,1.3c-1.2,0.8-2.0,1.7-2.7,2.9c-0.6,1.2-1.0,2.4-1.0,3.7c0.0,1.8,0.6,3.4,1.7,4.8c1.4,1.6,3.6,3.1,6.7,4.5l1.4-0.8c1.4-0.9,2.7-2.0,3.8-3.3c1.1-1.4,1.8-2.7,2.0-4.1c0.1-0.5,0.1-1.0,0.1-1.2c0.0-1.7-0.5-3.2-1.4-4.5c-0.7-0.9-1.5-1.6-2.5-2.2C29.0,10.6,27.9,10.3,26.8,10.2z"/>
	</g>
</svg>
