<?xml version='1.0' encoding='UTF-8'?>
<svg xmlns="http://www.w3.org/2000/svg" xmlns:xlink="http://www.w3.org/1999/xlink" width="462" height="150"><svg x="0" y="0">
		<g id="defaultContent">
			<path fill="#0B8BB7" d="M132.0,73.8c1.2,33.5-34.1,60.0-66.5,54.1c-7.4-1.5-13.3-2.9-18.5-7.2c-3.8-2.2-7.3-4.9-10.4-7.9c-15.6-14.8-22.4-37.7-13.8-58.6c5.9-11.8,13.3-22.1,25.0-28.0c14.1-7.1,27.3-8.4,42.6-4.7c19.3,4.7,37.0,20.9,40.5,41.3C131.6,66.4,132.0,70.1,132.0,73.8z"/>
			<g>
				<path fill="#FFFFFF" d="M55.5,47.6c3.6,1.2,9.4,3.5,17.2,7.0s17.8,8.2,30.0,14.0c-0.1,0.6-0.1,1.6-0.1,3.1c0.0,2.7,0.1,5.3,0.3,7.6c-10.4,4.4-19.5,8.4-27.2,12.0c-7.7,3.6-13.6,6.5-17.6,8.7l-0.9-1.9c-1.2-2.2-2.1-3.9-2.7-5.1c-0.7-1.2-1.3-2.2-2.0-3.0c7.0-4.2,18.3-9.6,33.9-16.3c-8.7-4.2-15.8-7.5-21.1-9.9c-5.3-2.4-9.7-4.2-13.0-5.4c0.7-1.7,1.3-3.6,2.0-5.7C54.8,50.8,55.2,49.0,55.5,47.6z"/>
			</g>
		</g>
	</svg>
	<svg id="active" x="154" y="0">
		<use xlink:href="#defaultContent" style="stroke: #000000; stroke-width: 14; opacity: 0.2; stroke-miterlimit: 10; stroke-linecap: round; stroke-linejoin: round;" x="6" y="6"/>
		<use xlink:href="#defaultContent" style="stroke: #FFFFFF; stroke-width: 14; stroke-miterlimit: 10; stroke-linecap: round; stroke-linejoin: round;"/>
		<use xlink:href="#defaultContent"/>
	</svg>
	<svg id="selected" x="308" y="0">
		<use xlink:href="#defaultContent" style="stroke: #FFFFFF; stroke-width: 32; stroke-miterlimit: 10; stroke-linecap: round; stroke-linejoin: round;"/>
		<use xlink:href="#defaultContent"/>
	</svg>
</svg>
