<?xml version='1.0' encoding='UTF-8'?>
<svg xmlns="http://www.w3.org/2000/svg" xmlns:xlink="http://www.w3.org/1999/xlink" width="244" height="144"><g id="num2">
		<g opacity="0.2">
			<path fill="#CC925E" d="M239.9,41.3c-0.6-6.4-0.4-12.9-0.4-19.4c0.0-2.9,0.0-5.9-0.1-8.8c-0.1-2.5,0.1-5.7-0.8-8.1c-1.9-5.0-10.1-4.0-14.4-3.7c-6.4,0.3-12.9,0.2-19.4,0.5c-6.7,0.2-13.4,0.6-20.1,0.5c-6.3-0.1-12.6-1.1-19.0-1.3c-13.4-0.4-26.6,0.7-40.0,1.1c-13.1,0.4-26.3-0.1-39.4,0.2c-6.2,0.1-12.5,0.4-18.7-0.1c-6.5-0.5-13.0-1.1-19.6-1.3c-6.5-0.2-13.1-0.3-19.6,0.1c-2.9,0.2-5.9,0.6-8.8,0.7c-3.2,0.1-6.5-0.2-9.7-0.3c-2.6-0.0-5.4-0.2-7.5,1.6c-1.9,1.7-2.3,4.1-2.4,6.5c-0.2,5.8-0.0,11.7-0.0,17.5c-0.1,12.6,0.7,25.1,0.8,37.7c0.1,12.6,0.7,25.2,0.5,37.7c-0.1,6.5-0.3,12.9-0.4,19.4c-0.0,4.0-0.7,8.6,1.0,12.4c1.0,2.3,2.6,2.8,4.8,3.7c3.0,1.3,5.6,2.0,8.9,1.9c6.5-0.2,13.0-1.1,19.5-1.3c12.6-0.6,25.2,1.3,37.8,1.7c6.3,0.2,12.7,0.2,19.0,0.0c6.5-0.2,13.0-0.7,19.6-0.6c13.0,0.2,25.9,1.4,38.9,0.6c13.1-0.8,26.3-2.2,39.4-1.1c12.6,1.1,25.3,0.8,37.9,1.6c3.6,0.2,8.5,0.5,10.4-3.2c2.1-4.1,1.1-9.4,0.9-13.8c-1.2-25.5,1.2-51.1,0.9-76.6c-0.0-2.7-0.0-5.4-0.3-8.1c-0.1-0.7-0.3-1.6-0.2-2.3C239.3,38.0,239.9,40.5,239.9,41.3C239.3,34.3,239.9,43.0,239.9,41.3z"/>
			<g>
				<path fill="#C88C5D" d="M224.2,1.3c-6.4,0.3-12.9,0.2-19.4,0.5c-6.7,0.2-13.4,0.6-20.1,0.5c-6.3-0.1-12.6-1.1-19.0-1.3c-13.4-0.4-26.6,0.7-40.0,1.1c-1.1,0.0-2.2,0.0-3.3,0.1c38.9,4.4,77.9,8.6,116.9,12.3c-0.0-0.4-0.0-0.8-0.0-1.2c-0.1-2.5,0.1-5.7-0.8-8.1C236.6,0.1,228.4,1.1,224.2,1.3z"/>
				<path fill="#C88C5D" d="M239.1,123.7c-0.0-0.1-0.0-0.3-0.0-0.4c-72.0-7.3-143.5-16.7-212.7-30.9c-8.4-1.7-16.8-3.6-25.1-5.5c0.1,3.1,0.1,6.2,0.1,9.3c76.6,16.9,157.3,27.8,238.1,36.0C239.6,129.3,239.2,126.3,239.1,123.7z"/>
				<path fill="#C88C5D" d="M35.2,138.5c12.6-0.6,25.2,1.3,37.8,1.7c6.3,0.2,12.7,0.2,19.0,0.0c6.5-0.2,13.0-0.7,19.6-0.6c13.0,0.2,25.9,1.4,38.9,0.6c13.1-0.8,26.3-2.2,39.4-1.1c12.6,1.1,25.3,0.8,37.9,1.6c1.7,0.1,3.7,0.2,5.5-0.0c-10.3-0.7-20.5-1.5-30.8-2.5c-58.0-5.1-115.8-12.8-172.9-22.9c-8.0-1.4-16.1-2.9-24.1-4.4c-1.5-0.3-3.0-0.6-4.4-0.8c-0.1,3.9-0.2,7.9-0.2,11.8c-0.0,4.0-0.7,8.6,1.0,12.4c0.6,1.5,1.5,2.2,2.6,2.8c4.8,0.9,9.6,1.8,14.4,2.7C24.4,139.3,29.8,138.7,35.2,138.5z"/>
				<path fill="#C88C5D" d="M239.5,26.7c-68.7-3.1-137.1-8.3-204.1-18.0c-11.2-1.6-22.3-3.4-33.4-5.3c-1.5,1.7-1.8,3.9-1.9,6.0c-0.0,0.9-0.0,1.8-0.1,2.7c77.5,13.0,158.6,19.6,239.5,23.3C239.5,32.6,239.5,29.6,239.5,26.7z"/>
				<path fill="#C88C5D" d="M240.0,46.7c-1.1-0.2-2.2-0.3-3.4-0.5c-78.3-11.6-157.6-17.7-236.5-20.1c0.0,0.3,0.0,0.6,0.0,0.9c-0.0,8.4,0.3,16.7,0.5,25.0c2.3,0.1,4.5,0.1,6.8,0.2c10.4,0.3,20.9,0.8,31.3,1.3c20.2,1.0,40.3,2.2,60.5,3.7c39.5,3.0,79.0,7.1,118.3,12.6c7.4,1.0,14.8,2.1,22.1,3.2c0.3-8.7,0.5-17.3,0.4-26.0C240.0,47.0,240.0,46.8,240.0,46.7z"/>
				<path fill="#C88C5D" d="M238.9,95.4c-0.3-0.1-0.7-0.1-1.0-0.2c-78.7-11.9-157.7-23.2-237.0-31.6c0.0,0.4,0.0,0.7,0.0,1.1c0.0,5.2,0.2,10.4,0.3,15.7c24.8,2.6,49.6,5.5,74.4,8.7c54.6,7.0,108.9,14.9,163.3,23.1C238.7,106.6,238.8,101.0,238.9,95.4z"/>
			</g>
		</g>
		<g opacity="0.2">
			<path fill="#333333" d="M78.9,106.4c-3.0,0.0-5.9-0.4-8.7-1.2c0.2,0.0,0.8-1.4,1.9-4.3c1.1-2.9,1.8-5.2,2.4-6.9c0.1,0.0,0.7,0.1,2.0,0.4c1.4,0.4,2.6,0.6,3.6,0.6c3.3,0.0,6.3-1.1,9.2-3.2c4.2-3.1,7.2-7.6,9.1-13.6l-0.4,0.2c-4.3,2.7-8.8,4.0-13.4,4.0c-1.5,0.0-3.0-0.1-4.4-0.4c-6.5-1.3-11.2-4.8-14.2-10.4c-1.9-3.6-2.8-7.5-2.8-11.7c0.0-3.6,0.7-7.0,2.2-10.4c1.4-3.3,3.5-6.2,6.1-8.6c2.3-2.0,4.8-3.6,7.6-4.6c2.8-1.1,5.7-1.6,8.7-1.6c2.3,0.0,4.6,0.3,6.8,1.0c7.4,2.2,12.3,6.9,14.9,14.3c1.3,3.8,2.0,8.1,2.2,12.9l0.0,1.6c0.0,4.1-0.5,8.1-1.5,12.2c-1.2,5.0-3.0,9.6-5.3,13.8c-2.4,4.2-5.3,7.7-9.0,10.4c-2.5,1.9-5.2,3.3-8.1,4.2C84.9,106.0,82.0,106.4,78.9,106.4zM88.1,45.0c-2.5,0.0-4.8,0.7-7.0,2.2c-2.2,1.4-3.9,3.3-5.2,5.6c-1.3,2.3-1.9,4.6-1.9,7.0c0.0,1.6,0.3,3.1,0.9,4.6c0.6,1.4,1.6,2.8,2.9,3.9c1.2,1.0,2.5,1.8,4.1,2.4c1.6,0.6,3.2,0.8,4.9,0.8c2.4,0.0,4.5-0.5,6.5-1.5c2.0-1.0,3.6-2.5,4.6-4.4c1.1-2.1,1.7-4.5,1.7-7.1c0.0-2.5-0.5-4.8-1.5-6.9c-1.0-2.2-2.4-3.8-4.3-4.9C92.0,45.5,90.1,45.0,88.1,45.0z"/>
		</g>
		<g opacity="0.2">
			<path fill="#333333" d="M130.5,94.6l2.1-2.1l4.0-3.8c0.5-0.5,0.9-0.8,1.3-1.1c0.4-0.3,0.6-0.5,0.8-0.7c1.4,2.6,4.1,4.8,8.2,6.6c1.8,0.8,3.6,1.2,5.4,1.2c1.7,0.0,3.3-0.4,4.9-1.1c1.6-0.7,2.9-2.0,3.8-3.7c0.9-1.7,1.4-3.7,1.4-5.8c0.0-1.7-0.3-3.3-1.0-4.7c-0.6-1.4-1.5-2.5-2.7-3.3c-2.3-1.6-5.5-2.4-9.8-2.4l-2.4-0.0c-0.8,0.0-1.4,0.0-2.0,0.1l-0.0-11.7c2.3-0.0,4.5-0.5,6.6-1.3c2.1-0.8,3.9-1.9,5.6-3.4c1.7-1.5,2.6-3.3,2.6-5.4c0.0-0.5-0.0-1.0-0.1-1.4c-0.3-1.3-0.9-2.5-1.8-3.5c-0.9-1.0-2.1-1.8-3.4-2.2c-0.8-0.3-1.6-0.4-2.5-0.4c-1.5,0.0-3.1,0.4-4.9,1.1c-1.8,0.7-3.7,1.9-5.6,3.3c-1.5-2.9-3.3-5.6-5.4-8.0c3.0-2.6,6.8-4.5,11.4-5.7c1.6-0.5,3.4-0.7,5.4-0.7c1.7,0.0,3.6,0.2,5.5,0.6c4.0,0.9,7.1,2.8,9.3,5.7h0.0c2.2,3.2,3.3,6.5,3.3,9.9c0.0,1.5-0.2,2.8-0.5,4.0c-1.1,4.5-3.7,8.0-7.6,10.4c4.7,1.6,8.1,4.2,10.3,8.0c1.9,3.1,2.8,6.5,2.8,10.1c0.0,1.0-0.1,1.9-0.2,2.7c-0.6,5.2-2.5,9.6-5.6,13.2c-3.1,3.6-7.4,5.9-13.0,7.0c-1.4,0.3-3.0,0.5-4.6,0.5c-1.8,0.0-3.5-0.1-4.9-0.4c-1.5-0.3-3.3-0.9-5.4-1.7c-1.3-0.5-2.9-1.6-4.5-3.0c-1.7-1.5-3.2-3.0-4.7-4.5c-1.4-1.5-2.2-2.3-2.2-2.3S130.5,94.7,130.5,94.6z"/>
		</g>
	</g>
</svg>
