<?xml version='1.0' encoding='UTF-8'?>
<svg xmlns="http://www.w3.org/2000/svg" xmlns:xlink="http://www.w3.org/1999/xlink" width="592" height="144"><svg x="0" y="0" id="sprite-placeholder-1-0">
		<g id="frame1">
			<path fill="#7A507C" d="M144.0,70.6c1.5,41.9-42.6,75.0-83.1,67.6c-9.2-1.8-16.6-3.7-23.2-9.0c-4.7-2.8-9.1-6.1-13.0-9.8c-19.5-18.5-28.0-47.2-17.2-73.3c7.4-14.7,16.6-27.6,31.3-35.0c17.6-8.8,34.1-10.5,53.2-5.9c24.1,5.9,46.2,26.1,50.6,51.6C143.5,61.3,144.0,65.9,144.0,70.6z"/>
		</g>
	</svg>
	<svg x="148" y="0" id="sprite-placeholder-2-0">
		<g id="frame2">
			<path fill="#7A507C" d="M144.0,70.6c1.5,41.9-42.6,75.0-83.1,67.6c-9.2-1.8-16.6-3.7-23.2-9.0c-4.7-2.8-9.1-6.1-13.0-9.8c-19.5-18.5-28.0-47.2-17.2-73.3c7.4-14.7,16.6-27.6,31.3-35.0c17.6-8.8,34.1-10.5,53.2-5.9c24.1,5.9,46.2,26.1,50.6,51.6C143.5,61.3,144.0,65.9,144.0,70.6z"/>
			<g>
				<path fill="#FFFFFF" d="M98.7,100.7c-4.2-1.3-10.8-4.0-19.7-8.1c-9.0-4.0-20.4-9.4-34.4-16.1c0.1-0.7,0.1-1.9,0.1-3.6c0.0-3.1-0.1-6.0-0.4-8.7c11.9-5.1,22.3-9.7,31.2-13.7c8.9-4.1,15.6-7.4,20.2-10.0l1.1,2.1c1.3,2.6,2.4,4.5,3.1,5.9c0.7,1.3,1.5,2.5,2.3,3.4c-8.0,4.8-21.0,11.0-38.9,18.6c10.0,4.8,18.1,8.6,24.2,11.3c6.1,2.8,11.1,4.8,14.9,6.2c-0.8,2.0-1.5,4.2-2.3,6.5C99.5,97.0,99.0,99.0,98.7,100.7z"/>
			</g>
		</g>
	</svg>
	<svg x="296" y="0" id="sprite-placeholder-3-0">
		<g id="frame3">
			<path fill="#7A507C" d="M144.0,70.6c1.5,41.9-42.6,75.0-83.1,67.6c-9.2-1.8-16.6-3.7-23.2-9.0c-4.7-2.8-9.1-6.1-13.0-9.8c-19.5-18.5-28.0-47.2-17.2-73.3c7.4-14.7,16.6-27.6,31.3-35.0c17.6-8.8,34.1-10.5,53.2-5.9c24.1,5.9,46.2,26.1,50.6,51.6C143.5,61.3,144.0,65.9,144.0,70.6z"/>
			<g>
				<path fill="#FFFFFF" d="M75.8,66.4h-2.7c-10.0,0.0-20.0-0.3-30.0-0.8c-0.0,0.0-0.1-0.2-0.1-0.7c0.0-0.5,0.1-2.1,0.2-4.8c0.2-3.1,0.3-5.3,0.3-6.4c0.0-0.9-0.1-1.3-0.2-1.3l8.2,0.2c9.8,0.3,18.2,0.4,25.1,0.4c10.2,0.0,19.3-0.3,27.4-0.9c0.3,3.2,0.5,5.9,0.7,7.9c0.2,2.1,0.5,3.9,0.8,5.4l-7.6,0.4c-7.4,0.4-11.3,0.6-11.8,0.6C84.0,66.4,80.5,66.4,75.8,66.4zM75.8,89.2h-2.7c-10.0,0.0-20.0-0.3-30.0-0.8c-0.0,0.0-0.1-0.2-0.1-0.7c0.0-0.5,0.1-2.1,0.2-4.8c0.2-3.1,0.3-5.3,0.3-6.4c0.0-0.9-0.1-1.3-0.2-1.3l8.2,0.2c9.6,0.3,17.8,0.4,24.7,0.4c10.3,0.0,19.6-0.3,27.8-0.9c0.3,3.2,0.5,5.9,0.7,7.9c0.2,2.1,0.5,3.9,0.8,5.4l-7.6,0.4c-7.4,0.4-11.3,0.6-11.8,0.6C84.0,89.2,80.5,89.2,75.8,89.2z"/>
			</g>
		</g>
	</svg>
	<svg x="444" y="0" id="sprite-placeholder-4-1">
		<g id="frame4">
			<path fill="#7A507C" d="M144.0,70.6c1.5,41.9-42.6,75.0-83.1,67.6c-9.2-1.8-16.6-3.7-23.2-9.0c-4.7-2.8-9.1-6.1-13.0-9.8c-19.5-18.5-28.0-47.2-17.2-73.3c7.4-14.7,16.6-27.6,31.3-35.0c17.6-8.8,34.1-10.5,53.2-5.9c24.1,5.9,46.2,26.1,50.6,51.6C143.5,61.3,144.0,65.9,144.0,70.6z"/>
			<g>
				<path fill="#FFFFFF" d="M51.1,40.5c4.2,1.3,10.8,4.0,19.7,8.1c9.0,4.0,20.4,9.4,34.4,16.1c-0.1,0.7-0.1,1.9-0.1,3.6c0.0,3.1,0.1,6.0,0.4,8.7c-11.9,5.1-22.3,9.7-31.2,13.7c-8.9,4.1-15.6,7.4-20.2,10.0l-1.1-2.1c-1.3-2.6-2.4-4.5-3.1-5.9c-0.7-1.3-1.5-2.5-2.3-3.4c8.0-4.8,21.0-11.0,38.9-18.6c-10.0-4.8-18.1-8.6-24.2-11.3c-6.1-2.8-11.1-4.8-14.9-6.2c0.8-2.0,1.5-4.2,2.3-6.5C50.3,44.2,50.8,42.2,51.1,40.5z"/>
			</g>
		</g>
	</svg>
</svg>
